# xmcd
#
# Track frame offsets:
#	150
#	31617
#	76106
#	109692
#	134866
#	160149
#	199197
#	233451
#	262776
#	284611
#
# Disc length: 4090 seconds
#
# Revision: 1
# Processed by: cddbd v1.5.2PL0 Copyright (c) Steve Scherf et al.
# Submitted via: audiograbber 1.83.01
#
DISCID=7b0ff80a
DTITLE=Various Artist - Cyber Wolrd Planet One
DYEAR=1900
DGENRE=Pop
TTITLE0=Code 20 - Progressive attack
TTITLE1=Cyborg - Tribute to Emmanuel
TTITLE2=Loving Loop - Bad house music
TTITLE3=X.ITE - Spacelover
TTITLE4=Proxyma - Other worlds
TTITLE5=DJ Crack - Follow me
TTITLE6=Changall - Metropolis
TTITLE7=Brain 1 - Brain 1
TTITLE8=Colet - LSP - Story of love
TTITLE9=Ultimate - To strong
EXTD=
EXTT0=
EXTT1=
EXTT2=
EXTT3=
EXTT4=
EXTT5=
EXTT6=
EXTT7=
EXTT8=
EXTT9=
PLAYORDER=
